<svg width="69" height="69" viewBox="0 0 69 69" fill="none" xmlns="http://www.w3.org/2000/svg">
    <path d="M43.6548 0.535156C30.0302 0.535156 18.9824 11.5829 18.9824 25.2147C18.9824 38.8393 30.0302 49.8871 43.6548 49.8871C57.2866 49.8871 68.3344 38.8393 68.3344 25.2147C68.3344 11.5829 57.2866 0.535156 43.6548 0.535156Z" fill="#D28147"/>
    <path d="M24.6795 19.52C11.0478 19.52 0 30.5678 0 44.1924C0 57.8242 11.0478 68.872 24.6795 68.872C38.3042 68.872 49.3519 57.8242 49.3519 44.1924C49.3519 30.5678 38.3042 19.52 24.6795 19.52Z" fill="#F6B059"/>
    <path d="M21.8345 38.4969C19.2078 38.4969 17.0865 40.6253 17.0865 43.2449C17.0865 45.8644 19.2078 47.9928 21.8345 47.9928C24.4541 47.9928 26.5753 45.8644 26.5753 43.2449C26.5753 40.6253 24.4541 38.4969 21.8345 38.4969ZM25.6286 27.1074C24.0554 27.1074 22.7812 28.3816 22.7812 29.9548C22.7812 31.528 24.0554 32.8021 25.6286 32.8021C27.2018 32.8021 28.476 31.528 28.476 29.9548C28.476 28.3816 27.2018 27.1074 25.6286 27.1074ZM32.2701 49.8863C30.1773 49.8863 28.476 51.5876 28.476 53.6876C28.476 55.7804 30.1773 57.4817 32.2701 57.4817C34.37 57.4817 36.0713 55.7804 36.0713 53.6876C36.0713 51.5876 34.37 49.8863 32.2701 49.8863ZM10.445 44.1916C8.87185 44.1916 7.59766 45.4658 7.59766 47.039C7.59766 48.6121 8.87185 49.8863 10.445 49.8863C12.0182 49.8863 13.2924 48.6121 13.2924 47.039C13.2924 45.4658 12.0182 44.1916 10.445 44.1916ZM37.018 38.4969C35.4449 38.4969 34.1707 39.7711 34.1707 41.3442C34.1707 42.9174 35.4449 44.1916 37.018 44.1916C38.5912 44.1916 39.8654 42.9174 39.8654 41.3442C39.8654 39.7711 38.5912 38.4969 37.018 38.4969ZM18.9871 55.5811C17.9336 55.5811 17.0865 56.4353 17.0865 57.4817C17.0865 58.5281 17.9336 59.3823 18.9871 59.3823C20.0335 59.3823 20.8806 58.5281 20.8806 57.4817C20.8806 56.4353 20.0335 55.5811 18.9871 55.5811Z" fill="#6D420D"/>
    <path d="M37.9621 8.13157C35.8693 8.13157 34.168 9.82575 34.168 11.9257C34.168 14.0256 35.8693 15.7198 37.9621 15.7198C40.062 15.7198 41.7633 14.0256 41.7633 11.9257C41.7633 9.82575 40.062 8.13157 37.9621 8.13157ZM48.4048 17.6204C46.8316 17.6204 45.5574 18.8946 45.5574 20.4678C45.5574 22.0409 46.8316 23.3151 48.4048 23.3151C49.978 23.3151 51.2522 22.0409 51.2522 20.4678C51.2522 18.8946 49.978 17.6204 48.4048 17.6204ZM50.2983 6.23096C48.7251 6.23096 47.4509 7.50515 47.4509 9.07832C47.4509 10.6515 48.7251 11.9257 50.2983 11.9257C51.8715 11.9257 53.1456 10.6515 53.1456 9.07832C53.1456 7.50515 51.8715 6.23096 50.2983 6.23096ZM56.9469 27.1093C55.9005 27.1093 55.0463 27.9635 55.0463 29.0099C55.0463 30.0563 55.9005 30.9105 56.9469 30.9105C57.9933 30.9105 58.8475 30.0563 58.8475 29.0099C58.8475 27.9635 57.9933 27.1093 56.9469 27.1093Z" fill="#7A441D"/>
</svg>
